<?xml version="1.0" encoding="utf-8"?>
<!-- Generator: Adobe Illustrator 20.0.0, SVG Export Plug-In . SVG Version: 6.00 Build 0)  -->
<svg version="1.1" id="Слой_1" xmlns="http://www.w3.org/2000/svg" xmlns:xlink="http://www.w3.org/1999/xlink" x="0px" y="0px"
	 viewBox="0 0 600 595.3" style="enable-background:new 0 0 600 595.3;" xml:space="preserve">
<style type="text/css">
	.st0{fill:#FFFFFF;}
</style>
<g>
	<path d="M586.2,361.3c-0.5,4.8-0.7,9.7-1.5,14.5c-2.6,15.8-10.1,28.6-23.9,37.3c-0.6,0.4-1.2,1.1-1.6,1.7
		c-10.8,20.4-24.6,38.7-39.5,56.2c-1.7,1.9-2.3,3.9-2.2,6.5c0.5,16-2.5,31.3-8.4,46.1c-4.2,10.6-8.9,20.9-15.4,30.3
		c-10.1,14.6-22.7,26.3-40.1,32c-15.7,5.1-31.8,7-48.2,6.4c-11.7-0.4-23.3-1-34.8-3.1c-14.5-2.7-28.2-7.4-39.7-16.9
		c-1.7-1.4-3.4-3.3-4.4-5.3c-2.7-5.3-7-8.2-12.4-9.8c-8-2.4-16.1-3.3-24.3-1.1c-5.1,1.3-9,4.1-12,8.5c-2.4,3.6-5,7.3-8,10.4
		c-4.7,5-11.2,7.2-17.4,9.8c-14.5,6-29.8,8-45.2,8.6c-9.7,0.4-19.5,0.7-29.2,0c-12.9-0.9-25.7-3.3-37.6-8.9
		c-12.7-6-22.7-15.1-30.8-26.4c-6.6-9.3-11.8-19.3-16.2-29.9c-5.3-12.7-8.5-26-9.4-39.7c-0.3-3.7,0-7.5-0.1-11.3
		c0-1.2-0.5-2.5-1.2-3.4c-9.1-11.8-18.5-23.4-27.3-35.5c-4.6-6.4-8-13.6-12.1-20.4c-1-1.7-2.4-3.4-4-4.5C25.6,404.1,18.4,391,16,375
		c-1.7-11-1.4-21.9,3.4-32.2c4.8-10.2,11.7-18.7,20.8-25.3c6.7-4.8,13.8-8.9,20.7-13.4c0.6-0.4,1.3-1.4,1.2-2
		c-2.6-12.7-3.3-25.5-4.3-38.3c0-0.1-0.1-0.1-0.2-0.5c-1.4-0.3-3.1-0.6-4.7-1c-2.7-0.6-4.7-2-4.9-4.9c-0.2-4.4-0.4-9,0.1-13.4
		c0.5-4.2,2.9-5.7,7.3-5.6c3.3,0.1,3.3,0.1,3.7-3.2c1.6-13.6,4.1-27,7.8-40.2c0.9-3.3,2.8-5.3,6.3-5.4c5.6-0.2,11.2-0.5,16.7-0.5
		c3,0,5-1.6,4.4-4.7c-1-5.8-0.2-11.5,1.1-17.1c0.4-1.9,1.8-3.5,2.7-5.2c0.7-1.4,1.7-2.7,1.8-4.2c0.8-9.5,1.1-19,2-28.5
		c1.7-18,4.8-35.8,11.4-52.8c6.9-17.8,17.7-32.9,34.2-42.9c8.4-5.1,17.7-8.9,26.9-12.5c25.2-9.9,51.6-14.7,78.5-16.6
		c28.7-2.1,57.5-2.4,86.3-1.3c23.3,0.9,46.1,4.2,68.5,10.8c13.7,4,27,9,39.5,15.8c13.3,7.2,24,17.2,31.9,30.3
		c9.6,16,14.3,33.5,17,51.6c2.1,14.6,3,29.4,4.4,44.1c0.2,2.3,0.9,4.2,2.4,6.2c1.6,2.1,2.6,5.2,2.9,7.9c0.5,4.5,0.4,9.1,0.4,13.6
		c0,3.4,1.4,4.7,4.7,4.8c5.9,0.2,11.8,0.5,17.7,1c3.5,0.3,5.5,2.5,6.2,5.8c2.4,11.1,4.7,22.2,7,33.3c0.5,2.3,0.6,4.6,0.8,6.9
		c0.1,1.6,0.7,2.4,2.4,2.1c5.1-0.7,8.3,1.6,8.5,8c0.1,3.4,0.1,6.7-0.2,10.1c-0.4,3.7-2,5.1-5.6,5.8c-4.4,0.9-4.2,0.9-4.6,5.4
		c-1.1,10.6-2.3,21.1-3.7,31.6c-0.5,3.8-0.7,3.7,2.6,5.4c9.8,5.1,19.2,11.1,26.7,19.2c9.2,10,16.4,21.3,17.1,35.6
		c0,0.5,0.2,1.1,0.3,1.6C586.2,360.6,586.2,361,586.2,361.3z M327.6,531.4c-0.1,0.3-0.2,0.6-0.3,0.9c1.4,0.8,2.8,1.6,4.2,2.2
		c3.2,1.5,3.6,2.4,2.8,5.8c-1.2,4.6-2.3,9.3-3.4,14c-1.8,7.5,1.2,12.9,6.8,17.6c6.9,5.9,15.2,8.8,23.7,11.1
		c27.8,7.3,55.8,7.3,83.9,1.2c18.7-4,33.1-14.4,43.7-30.4c8.9-13.4,15.3-27.9,19.8-43.2c6.9-23.4,6.7-46.4-3.4-69.1
		c-5.7-12.7-14.3-22.3-27.6-27.1c-7.7-2.7-15.5-5-23.3-7.2c-17.8-5.2-34.4-12.9-50.2-22.5c-18.1-10.9-33.8-25-49.5-39
		c-10.5-9.4-21.8-17.1-34.7-22.8c-12.6-5.6-25.2-5.1-37.8-0.3c-10.1,3.8-18.9,9.7-27.1,16.5c-11.2,9.3-22,19-33.2,28.3
		c-12.6,10.5-26.1,19.8-40.9,27.1c-11.9,5.9-24,10.9-36.7,14.6c-7.6,2.2-15.2,4.4-22.5,7.4c-7.6,3.1-14.2,7.9-19.2,14.6
		c-5.3,7.1-8,15.2-10.8,23.4c-5.1,15-5,30.4-2.1,45.8c2.8,14.9,8.3,28.8,15.5,42.1c3.7,6.9,7.5,13.7,12.6,19.8
		c7.5,9,16.4,16.1,27.5,20.2c13.4,4.9,27.4,7.1,41.6,7.6c16.2,0.6,32.3-0.2,48.1-4.1c11-2.7,21.8-5.6,30.7-13.2
		c5.3-4.6,8.2-10,6.5-17.1c-1-4-2-8.1-3-12.1c-1.5-6-1.5-6,4-8.9c0.9-0.5,1.7-1.3,2.5-2c-0.1-0.2-0.3-0.4-0.4-0.6
		c-1.1,0.2-2.2,0.3-3.3,0.5c-1.1,0.2-2.2,0.5-3.3,0.7c-3.1,0.5-4.4-0.1-5.3-3.1c-3.3-11.2-6.5-22.4-9.6-33.6
		c-0.5-1.9,0.3-3.1,2.2-3.6c1.5-0.4,3-1.1,4.6-1.4c2.7-0.5,3.1-2.1,3.1-4.5c-0.2-6.3-0.4-12.6-0.3-18.9c0-3,1.4-4.1,4.4-4.2
		c1.8-0.1,3.7,0.1,5.5,0.1c3.2-0.1,3.8-1,2.5-3.8c-1.1-2.5-2.3-4.9-3.6-7.3c-1.1-2-0.9-3.8,0.4-5.6c3.7-5.1,8.8-7.7,14.8-8.9
		c2.7-0.5,4.3,0.3,5.9,2.4c2.4,3.2,5.1,6.2,8,9.6c2.9-3.5,5.4-6.8,8.2-9.9c1-1.1,2.6-2.5,4-2.5c6.8,0.2,12.3,3,16.3,8.6
		c1.4,2,1.6,4.1,0.5,6.3c-1.2,2.3-2.4,4.7-3.4,7.1c-1,2.4-0.3,3.3,2.2,3.3c1.4,0,2.7,0,4.1-0.1c5.3-0.2,6.4,0.8,6.4,6.1
		c0,5.1-0.2,10.2-0.3,15.3c-0.1,4.1-0.1,4.1,3.7,5.4c6.2,2.1,6.6,2.7,5.1,8.9c-0.1,0.2-0.1,0.5-0.2,0.7c-2.9,10.1-5.8,20.1-8.6,30.2
		c-0.6,2-1.8,2.7-3.7,2.5c-1.2-0.2-2.4-0.4-3.5-0.6C330.3,531.8,328.9,531.6,327.6,531.4z M495.3,158.5c0.1-1.1,0.2-1.8,0.1-2.6
		c-1.2-16.2-1.9-32.4-4.9-48.4c-3.1-16.4-7.5-32.2-16.5-46.4c-6.1-9.5-13.6-17.6-23-23.7c-12-7.7-25.2-12.8-38.7-17.2
		c-20.4-6.6-41.4-10.1-62.8-11.8c-18.7-1.5-37.4-1.3-56.1-1.1c-22,0.2-43.9,1.3-65.7,4.6c-23.4,3.6-45.9,10-67.4,19.9
		c-18.2,8.3-31,22-39.7,39.7c-7.3,15-10.5,31.4-12.6,47.8c-1.4,11-1.9,22.1-2.7,33.2c-0.2,2,0,4.1,0,6.1c0.4,0.1,0.7,0.2,0.9,0.2
		c0.8-0.1,1.6-0.2,2.4-0.3c39.4-7.8,79.1-12.7,119.2-14.4c21.7-0.9,43.5-1.2,65.2-1.6c35.4-0.7,70.7,0,105.9,2.8
		c27.9,2.2,55.6,5.8,83.2,10.9C486.4,156.9,490.7,157.6,495.3,158.5z M146.8,404.4c2.5-1.4,4.7-2.6,6.9-3.8
		c7.9-4.1,15.9-7.8,23.6-12.2c15-8.7,27.9-19.9,39.8-32.5c13.7-14.6,27.3-29.1,41.3-43.5c7.3-7.5,15.7-13.7,25.3-18
		c13.8-6.1,27.2-4.6,40.2,3.1c10.5,6.2,19.5,14.2,27.8,23c14.2,14.8,28.1,29.8,42.4,44.3c11,11.1,23.9,20,37.8,27.3
		c7.1,3.7,14.4,6.8,21.6,10.3c1.2,0.6,1.7,0.1,2.2-0.9c2-4,4-8,6.2-11.9c4.6-8.1,9.4-16.2,14.1-24.2c3.9-6.5,7.6-13.1,9.6-20.6
		c3.6-13.4-1-27.4-16.2-33.3c-3.7-1.5-7.6-2.3-11.5-3.5c-23.7-7.1-45.4-18.4-65.7-32.5c-11.4-7.9-22.4-16.5-33.4-25
		c-11.3-8.6-22.7-16.9-35.9-22.3c-14.5-5.9-29.1-6.4-43.7-0.5c-12.4,5-23.1,12.6-33.6,20.6c-13.4,10.2-26.8,20.6-40.6,30.2
		c-18.3,12.7-38.1,22.6-59.3,29.5c-6.2,2-12.7,3.1-18.5,6.5c-9.2,5.5-15.1,16.5-12.7,27.3c1.6,7.2,4.3,13.8,8,20.2
		c7.4,12.5,14.6,25.2,21.8,37.8C145.3,401.1,146,402.8,146.8,404.4z M107.3,232.7c0.3,0,0.6,0,0.9-0.1c0.8,4.3,1.5,8.6,2.3,12.9
		c1.9,9.9,3.5,19.8,5.8,29.6c1.8,7.5,4.8,14.7,11.2,19.7c4.3,3.3,9,6,13.6,8.8c0.7,0.4,1.9,0.5,2.7,0.2c12.9-4,25.5-9.1,37.3-15.6
		c20.4-11.3,39.2-25,57.6-39.2c10.8-8.3,21.7-16.4,33.9-22.4c16.8-8.3,33.8-9,51-2.1c10.3,4.1,19.4,10.4,28.4,16.8
		c16.8,12,33.3,24.3,50.4,35.9c16.7,11.2,34.9,19.7,54.1,26c1,0.3,2.3,0.6,3.2,0.2c11.2-5.2,20.6-12.4,23.8-25
		c2.8-11.1,4.8-22.3,7.1-33.5c0.7-3.4,1.1-6.8,1.7-10.2c0.2,0,0.4,0,0.6,0c0.5,4.8,1.2,9.6,1.5,14.5c0.9,17.6,2.1,35.1,5.3,52.4
		c0.8,4.3,0.9,8.7-1.4,12.6c-2.1,3.5-4.6,6.8-7.1,10.1c-0.9,1.2-1.3,2.1-1,3.6c0.6,3.6,1,7.3,1.4,10.9c0.1,0.8,0.1,1.7,0.2,2.5
		c0.2,0.1,0.4,0.2,0.6,0.3c0.4-0.5,0.7-1,1.1-1.5c2.4-3.2,4.8-6.4,7.1-9.6c5.9-8.1,8.1-17.2,6.7-27.2c-0.8-6.2-1.4-12.4-1.7-18.6
		c-0.9-20.5-1.7-40.9-2.3-61.4c-0.3-10.5,0-21-0.1-31.4c0-4.4-0.5-4.8-4.8-5.7c-34.8-7.4-70-12.9-105.5-14.9
		c-28.7-1.7-57.5-2.8-86.3-3.4c-17.5-0.4-35,0.4-52.5,1c-28.7,1-57.3,2.9-85.8,6.6c-22,2.9-44,6.6-65.6,11.4c-4.4,1-4.8,1.5-5.1,6.1
		c-0.1,1.3,0,2.6,0,3.8c0.1,7.1,0.5,14.2,0.3,21.3c-0.3,14.2-0.7,28.5-1.4,42.7c-0.8,15.3-2,30.6-3,45.9c-0.5,7.3,0.6,14.2,4.4,20.5
		c2.2,3.6,4.7,7.1,7.1,10.5c1.2,1.6,2.5,3.1,3.9,4.8c0.6-4.6,0.8-8.8,1.7-12.9c0.5-2.3,0.1-3.8-1.6-5.4c-5.9-5.7-8.6-12.8-7.6-21
		c0.6-5.2,1.5-10.5,1.9-15.7c1.1-14,1.9-28.1,2.9-42.1C106.6,241.1,106.9,236.9,107.3,232.7z M84.2,468.5c0.4-1,0.5-1.3,0.6-1.6
		c1.8-11,5.4-21.3,10.4-31.2c0.4-0.7,0.2-2.1-0.3-2.8c-1.9-3.3-4.1-6.5-6.2-9.7c-13.8-21.9-27.2-44.1-38.4-67.4
		c-0.9-1.8-1.8-3.5-2.8-5.3c-0.6,0.3-1,0.5-1.3,0.7c-7.5,6.2-13.1,13.5-12.6,23.8c0.2,4.3,0.7,8.6,1.7,12.8c2.7,11.1,8.3,21,13.7,31
		c7.8,14.6,17.6,27.9,27.8,41C79.1,462.6,81.5,465.3,84.2,468.5z M553.8,348.9c-0.6,1.1-1,1.8-1.4,2.5c-5.7,10.7-11,21.5-17.1,31.9
		c-9.3,15.9-19.1,31.4-28.8,47.1c-1.1,1.7-1.1,3.1-0.3,5c3,7.3,5.8,14.7,8.4,22.1c1,2.8,1.4,5.8,2.1,9.3c1.3-1.4,2.3-2.3,3.2-3.4
		c7.2-9.7,14.8-19.3,21.6-29.3c10-14.8,19.2-30.1,24.2-47.4c1.4-4.9,1.9-10.2,1.8-15.3c-0.1-6.6-3.9-11.9-7.9-16.8
		C558.1,352.5,556,350.9,553.8,348.9z M93.2,234.8c-0.1,0-0.3,0-0.4,0c0-12.5-0.1-25.1,0.1-37.6c0-2.3-0.8-2.9-2.9-2.9
		c-4.3,0.1-8.6-0.1-12.9,0.1c-4.8,0.2-4.9,0.4-6.4,5.1c-0.4,1.4-1,2.7-1.2,4.1c-1.6,10.4-3.3,20.8-4.7,31.2
		c-2.3,18.4-2.1,36.8,0.2,55.2c0.7,5.3,1.9,10.5,3.2,15.7c0.3,1.3,2.1,2.8,3.5,3.1c4.5,1,9.1,1.4,13.7,2.1c1.8,0.3,2.5-0.6,2.6-2.2
		c0.4-4.3,1.1-8.6,1.3-12.9C90.7,275.5,91.9,255.2,93.2,234.8z M508.1,227.6c0.9,19.5,1.7,37.7,2.7,55.8c0.4,7.9,1.5,15.7,2.2,23.6
		c0.2,2.1,0.8,3.4,3.4,3c3.8-0.7,7.7-1.2,11.6-1.6c2.5-0.3,3.9-1.5,4.4-3.9c1.4-7,3.4-14,4.2-21.1c2.6-21.2,1.3-42.5-2-63.5
		c-1.2-7.9-3.4-15.6-5.2-23.3c-0.4-1.8-1.6-2.6-3.3-2.6c-5.4-0.1-10.8-0.1-16.3-0.1c-1.5,0-2,0.7-2,2.3
		C508.1,207,508.1,218,508.1,227.6z M512.1,319.9c-2.3,4-4.4,8.2-7.1,12c-6.7,9.7-14.2,18.9-20.5,28.9
		c-7.3,11.6-13.6,23.9-20.2,35.9c-1.3,2.3-2,4.9-3,7.5c5,1.5,9.6,3,14.1,4.3c0.5,0.1,1.3-0.4,1.7-0.9c1.5-1.9,2.9-3.8,4.2-5.8
		c11.2-16.9,22.2-34,31.8-51.9c3.3-6.2,6.7-12.4,10-18.6c0.5-0.9,1.4-1.8,0-2.9C519.4,325.6,515.8,322.7,512.1,319.9z M89.2,320.6
		c-3.3,2.6-6.6,5.4-10.1,7.9c-1.9,1.3-2,2.4-0.9,4.3c8.4,14.6,16.4,29.4,25.1,43.9c6.5,10.9,13.8,21.3,20.8,31.9
		c0.4,0.6,1.8,0.9,2.6,0.7c3.6-0.9,7.2-2.1,10.8-3.1c2.6-0.7,2.8-1,1.7-3.4c-7.4-16.7-16.4-32.5-26.9-47.5
		c-6.3-8.9-12.9-17.7-19.1-26.7C91.5,326.1,90.5,323.2,89.2,320.6z M35.9,404c-0.3-0.8-0.6-1.6-0.8-2.3c-1.7-4.9-3.7-9.7-5-14.8
		c-3.1-12.4-0.9-23.8,7.8-33.5c5.7-6.4,13-10.6,19.8-15.4c5.6-3.9,12.2-6.4,16.5-12c0.4-0.5,1.2-0.8,1.7-1.3c2.4-2,4.9-3.9,7.2-5.9
		c0.8-0.7,1.2-1.7,2-2.9c-2.2-0.3-3.8-0.5-5.5-0.7c-4.9-0.7-10-1-14.2-3.9c-1.5-1.1-2.5-1-4-0.3c-8.4,3.7-15.9,8.9-22.9,14.7
		c-7.4,6.1-13.6,13.5-16.2,23c-4.7,16.5-2.3,32.3,5.9,47.3C30,399.1,32.4,402,35.9,404z M565.6,402.5c0.2,0.2,0.4,0.3,0.6,0.5
		c1.5-1.7,3.3-3.2,4.6-5c5.7-7.9,8.4-17,9.6-26.5c2.1-16.8-1.9-31.5-14.5-43.4c-7.8-7.4-16.2-13.7-26.1-18c-0.9-0.4-2.5-0.9-3-0.5
		c-3.4,2.9-7.5,3.4-11.6,4.2c-2.9,0.5-5.8,0.8-9.2,1.3c0.9,1.3,1.4,2.3,2.3,3c2.8,2.3,5.8,4.5,8.7,6.7c0.7,0.6,1.5,1.2,2.1,1.8
		c1.1,1.1,1.9,2.5,3.2,3.3c6.8,4.5,13.7,8.8,20.6,13.1c7.2,4.5,13,10.3,16.7,18c4.6,9.6,3.6,19.3,0.5,29
		C568.8,394.2,567.1,398.3,565.6,402.5z M102,383.1c-7.8,4.7-15.2,9.1-22.5,13.6c-0.4,0.3-0.7,1.7-0.3,2.3c1.5,2.9,3.2,5.7,5,8.4
		c0.3,0.5,1.7,1,2.2,0.7c7.3-4.2,14.4-8.6,21.6-12.9c0.4-0.3,0.8-1.3,0.6-1.7C106.5,390.1,104.3,386.7,102,383.1z M491.9,393.3
		c0.5,0.3,0.8,0.5,1,0.7c7.2,4.3,14.4,8.6,21.7,12.8c0.5,0.3,1.9-0.1,2.2-0.6c1.8-2.8,3.5-5.7,5.1-8.7c0.3-0.5-0.1-1.9-0.6-2.2
		c-6.9-4.2-13.9-8.2-20.8-12.4c-1.1-0.6-1.7-0.5-2.3,0.6C496.2,386.6,494.2,389.8,491.9,393.3z M93.5,369c-0.4,0.1-0.8,0.1-1,0.3
		c-7.1,4.2-14.1,8.4-21.2,12.6c-1.2,0.7-1.1,1.6-0.5,2.6c1.5,2.6,2.9,5.1,4.3,7.7c0.7,1.3,1.4,1.5,2.7,0.7
		c6.9-4.2,13.8-8.3,20.7-12.4c1.1-0.6,1.3-1.3,0.6-2.3C97.2,375.2,95.4,372.1,93.5,369z M525,392.7c2-3.5,3.8-6.7,5.5-10
		c0.2-0.4-0.2-1.5-0.6-1.7c-6.9-4.2-13.9-8.4-21-12.5c-0.4-0.2-1.5,0-1.7,0.3c-2,3.1-3.9,6.4-6,9.8C509.3,383.3,517,387.9,525,392.7
		z M91.2,364.7c-2.3-3.8-3.9-6.6-5.7-9.3c-0.1-0.2-1.1,0-1.5,0.2c-6.8,4.1-13.5,8.2-20.2,12.3c-1,0.6-1.5,1.3-0.8,2.5
		c1.2,2.1,2.4,4.3,3.5,6.5c0.6,1.1,1.2,1.5,2.4,0.8c6.7-4.1,13.5-8.2,20.2-12.3C89.8,365.1,90.5,364.9,91.2,364.7z M516,354
		c-0.4,0.4-0.8,0.8-1.1,1.3c-1.2,2.1-2.3,4.2-3.6,6.2c-0.8,1.3-0.5,2.2,0.7,3c6.7,4,13.3,8.1,20.1,12.1c0.5,0.3,1.9-0.1,2.2-0.6
		c1.3-2,2.3-4.2,3.6-6.2c0.9-1.5,0.6-2.3-0.9-3.2c-6.5-3.8-13-7.8-19.5-11.7C517.1,354.6,516.7,354.3,516,354z M87.5,412.8
		c1.3,2.3,2.6,4.3,3.7,6.4c1,1.9,1.9,2.3,3.9,1.1c5.7-3.7,11.6-7,17.3-10.7c5.2-3.3,5.7-1.7,1.7-7.7c-0.4-0.7-0.9-1.3-1.3-2
		c-0.7-1.2-1.4-1.6-2.9-0.7c-3.9,2.4-7.9,4.6-11.8,6.9C94.7,408.3,91.2,410.5,87.5,412.8z M489.5,397c-1.7,2.6-3.3,4.9-4.6,7.3
		c-0.3,0.5,0.2,1.8,0.8,2.2c7,4.3,14,8.6,21,12.9c1.1,0.7,1.9,0.6,2.5-0.6c1-1.7,1.9-3.5,3.1-5.1c1.2-1.5,0.9-2.4-0.7-3.4
		C504.4,406,497.1,401.6,489.5,397z M541.2,363.3c1.1-1.9,2-3.5,2.9-5.2c0.9-1.6,0.5-2.7-1.1-3.7c-6.1-3.5-12.1-7.2-18.1-10.8
		c-2.7-1.6-2.8-1.6-4.2,1.1c-0.5,1-1,2-1.6,2.9c-0.7,1.2-0.6,2,0.6,2.7C526.7,354.6,533.7,358.9,541.2,363.3z M82.9,350.5
		c-1.2-2.3-2.2-4.4-3.4-6.3c-0.2-0.4-1.5-0.5-1.9-0.2c-6.7,4-13.4,8.1-20,12.2c-0.5,0.3-1,1.3-0.9,1.7c0.9,2.2,1.9,4.3,3,6.7
		C67.7,359.8,75.2,355.2,82.9,350.5z M54.1,353.3c7.5-4.6,14.7-8.9,21.8-13.3c0.4-0.3,0.7-1.3,0.5-1.8c-0.8-1.7-1.7-3.3-2.9-5.4
		c-7.2,4.7-14.1,9.2-21,13.8c-0.4,0.3-0.8,1.3-0.6,1.8C52.5,350.1,53.3,351.6,54.1,353.3z M549.7,346.7c-0.5-0.5-1-1.2-1.6-1.6
		c-5.5-3.5-11-7.1-16.6-10.5c-4.4-2.7-4.5-2.6-6.6,2.2c-0.6,1.2-0.5,2,0.8,2.7c6.6,3.9,13.1,7.9,19.7,11.8c0.5,0.3,1.6,0.4,1.8,0.1
		C548.1,350,548.8,348.4,549.7,346.7z M502.6,428.4c0.5-0.6,1-1.2,1.4-1.8c1.8-2.6,1.8-2.7-0.8-4.4c-5.1-3.2-10.2-6.3-15.2-9.5
		c-1.7-1-3.4-2-5.2-3c-0.4-0.2-1,0-1.5,0.1c0.2,0.5,0.2,1.1,0.5,1.4c0.6,0.5,1.4,0.8,2.1,1.2c3.2,2.1,6.5,4,9.4,6.5
		C496.5,421.7,499.3,425,502.6,428.4z M98.5,429.9c0.7-0.8,1.2-1.3,1.6-1.7c2.4-2.6,4.5-5.5,7.2-7.7c3.7-2.9,7.8-5.3,11.7-7.9
		c0.5-0.3,0.7-1,1.1-1.5c-0.6-0.1-1.3-0.4-1.7-0.1c-7.2,4.4-14.3,8.8-21.4,13.2c-1.1,0.7-1.4,1.4-0.6,2.5
		C97,427.6,97.6,428.6,98.5,429.9z"/>
	<path class="st0" d="M327.6,531.4c1.4,0.2,2.7,0.3,4.1,0.5c1.2,0.2,2.4,0.4,3.5,0.6c1.9,0.3,3.2-0.5,3.7-2.5
		c2.9-10.1,5.8-20.1,8.6-30.2c0.1-0.2,0.1-0.5,0.2-0.7c1.5-6.2,1.1-6.8-5.1-8.9c-3.8-1.3-3.8-1.3-3.7-5.4c0.1-5.1,0.3-10.2,0.3-15.3
		c0-5.3-1.1-6.3-6.4-6.1c-1.4,0-2.7,0.1-4.1,0.1c-2.5,0-3.2-0.9-2.2-3.3c1-2.4,2.2-4.8,3.4-7.1c1.2-2.2,1-4.3-0.5-6.3
		c-4-5.6-9.6-8.4-16.3-8.6c-1.3,0-2.9,1.4-4,2.5c-2.8,3.1-5.3,6.3-8.2,9.9c-2.8-3.4-5.6-6.4-8-9.6c-1.6-2.1-3.3-2.9-5.9-2.4
		c-6.1,1.2-11.1,3.8-14.8,8.9c-1.3,1.8-1.5,3.6-0.4,5.6c1.3,2.4,2.5,4.8,3.6,7.3c1.3,2.9,0.7,3.7-2.5,3.8c-1.8,0.1-3.7-0.1-5.5-0.1
		c-3,0.1-4.4,1.2-4.4,4.2c0,6.3,0.1,12.6,0.3,18.9c0.1,2.4-0.4,4-3.1,4.5c-1.6,0.3-3,1-4.6,1.4c-1.9,0.5-2.7,1.7-2.2,3.6
		c3.2,11.2,6.3,22.4,9.6,33.6c0.9,3,2.2,3.6,5.3,3.1c1.1-0.2,2.2-0.5,3.3-0.7c1.1-0.2,2.2-0.4,3.3-0.5c0.1,0.2,0.3,0.4,0.4,0.6
		c-0.8,0.7-1.6,1.5-2.5,2c-5.5,2.9-5.5,2.9-4,8.9c1,4,2,8.1,3,12.1c1.7,7.2-1.2,12.6-6.5,17.1c-8.9,7.6-19.7,10.6-30.7,13.2
		c-15.8,3.9-32,4.7-48.1,4.1c-14.2-0.5-28.2-2.8-41.6-7.6c-11.1-4-20-11.2-27.5-20.2c-5-6-8.9-12.8-12.6-19.8
		c-7.1-13.4-12.7-27.3-15.5-42.1c-2.9-15.3-3-30.7,2.1-45.8c2.8-8.2,5.5-16.3,10.8-23.4c5-6.7,11.6-11.5,19.2-14.6
		c7.3-3,14.9-5.2,22.5-7.4c12.7-3.6,24.9-8.7,36.7-14.6c14.8-7.3,28.2-16.6,40.9-27.1c11.2-9.3,22-19,33.2-28.3
		c8.2-6.8,17-12.7,27.1-16.5c12.6-4.8,25.2-5.3,37.8,0.3c12.8,5.7,24.2,13.5,34.7,22.8c15.7,14,31.4,28.1,49.5,39
		c15.8,9.5,32.4,17.3,50.2,22.5c7.8,2.3,15.7,4.5,23.3,7.2c13.3,4.8,21.9,14.3,27.6,27.1c10.2,22.6,10.3,45.7,3.4,69.1
		c-4.5,15.3-10.9,29.8-19.8,43.2c-10.6,16-25,26.3-43.7,30.4c-28,6-56,6-83.9-1.2c-8.5-2.2-16.8-5.2-23.7-11.1
		c-5.5-4.7-8.6-10.2-6.8-17.6c1.1-4.7,2.2-9.3,3.4-14c0.9-3.3,0.5-4.3-2.8-5.8c-1.4-0.7-2.8-1.5-4.2-2.2
		C327.3,532,327.5,531.7,327.6,531.4z M371.7,505.8c-1.3,0-2.1,0.1-3,0c-3.1-0.4-6.2-0.8-9.2-1.3c-2.4-0.3-3.8,0.8-4.7,2.8
		c-3.8,8-6.1,16.5-7.8,25.1c-1.1,5.5-1.3,11,2.4,15.8c3.8,5,8.4,8.9,14.1,11.6c11.3,5.5,23.3,8.1,35.9,8.6
		c17.5,0.8,34-2.5,48.8-12.5c9.3-6.4,16.6-14.3,19.8-25.6c4.4-15.2-1-32.4-14.1-41.3c-14.9-10.1-32.8-9.9-48.7-0.2
		c-4.5,2.8-8.4,6.6-12.4,10.2c-6.4,5.9-17.1,7-22.7-1.2c-1.9-2.8-3.9-5.7-5.4-8.7c-4-8.5-7.7-17.2-11.6-25.8
		c-4.2-9.1-8.3-18.3-12.9-27.3c-3.2-6.3-7.4-12.1-13.5-15.9c-15.7-9.8-31.8-9.4-47.9-1.2c-7.8,4-13,10.9-16.8,18.5
		c-4.9,9.8-9.2,19.9-13.8,29.8c-4.6,9.8-9.1,19.7-14,29.4c-2.4,4.8-6.3,8-12.1,8.2c-4.8,0.2-9-1.4-12.4-4.7
		c-6.7-6.6-14-12-23.1-14.9c-12.6-4-24.9-2.9-36.1,3.9c-22.3,13.5-22.4,42.4-8.3,57.9c13.7,15,31.1,21.9,50.8,23.1
		c12.7,0.8,25.2-0.8,37.3-5.1c7-2.6,13.7-5.7,19.2-11c4.6-4.5,8-9.5,7.1-16.3c-1.4-10.4-4.2-20.5-8.9-30c-0.9-1.8-2.5-2.7-4.6-2.3
		c-2,0.3-3.9,0.7-5.9,0.9c-2,0.3-4,0.4-6,0.6c0.3-1.1,0.8-1.6,1.2-2.2c2.2-2.9,4.9-5.6,6.4-8.9c6.2-13.1,12-26.5,18.1-39.7
		c3.1-6.6,6.2-13.1,9.8-19.4c3.5-6.2,8.3-11.7,14.5-15.3c7.4-4.4,15.7-5.2,24.1-4.7c8.6,0.5,16.4,3.3,22.8,9.3
		c5.7,5.4,9.5,12.1,12.7,19c6.1,13.3,11.9,26.7,18,40c3.2,6.9,6,14.2,12.3,19.2C371.1,504.8,371.2,505.1,371.7,505.8z"/>
	<path class="st0" d="M495.3,158.5c-4.6-0.8-8.9-1.6-13.2-2.4c-27.5-5.1-55.3-8.6-83.2-10.9c-35.3-2.8-70.6-3.5-105.9-2.8
		c-21.7,0.4-43.5,0.7-65.2,1.6c-40.1,1.7-79.8,6.6-119.2,14.4c-0.8,0.2-1.6,0.3-2.4,0.3c-0.2,0-0.5-0.1-0.9-0.2c0-2-0.1-4.1,0-6.1
		c0.8-11.1,1.3-22.2,2.7-33.2c2.1-16.4,5.2-32.8,12.6-47.8c8.6-17.7,21.5-31.4,39.7-39.7c21.5-9.9,44-16.3,67.4-19.9
		c21.8-3.3,43.7-4.4,65.7-4.6c18.7-0.2,37.4-0.3,56.1,1.1c21.3,1.7,42.4,5.2,62.8,11.8c13.5,4.4,26.7,9.5,38.7,17.2
		c9.5,6.1,17,14.2,23,23.7c9.1,14.2,13.5,30.1,16.5,46.4c3,16,3.7,32.2,4.9,48.4C495.5,156.6,495.4,157.4,495.3,158.5z"/>
	<path class="st0" d="M146.8,404.4c-0.8-1.6-1.5-3.3-2.4-4.9c-7.2-12.6-14.4-25.2-21.8-37.8c-3.7-6.3-6.5-13-8-20.2
		c-2.4-10.8,3.6-21.8,12.7-27.3c5.8-3.4,12.3-4.5,18.5-6.5c21.2-6.9,41-16.8,59.3-29.5c13.8-9.6,27.1-20,40.6-30.2
		c10.5-8,21.3-15.6,33.6-20.6c14.6-5.9,29.2-5.4,43.7,0.5c13.3,5.4,24.7,13.7,35.9,22.3c11,8.4,22,17,33.4,25
		c20.2,14.1,41.9,25.4,65.7,32.5c3.8,1.2,7.7,2,11.5,3.5c15.2,6,19.8,20,16.2,33.3c-2,7.5-5.7,14-9.6,20.6
		c-4.8,8-9.5,16.1-14.1,24.2c-2.2,3.9-4.2,7.9-6.2,11.9c-0.5,1-1,1.5-2.2,0.9c-7.2-3.4-14.6-6.5-21.6-10.3
		c-13.8-7.3-26.7-16.1-37.8-27.3c-14.4-14.5-28.3-29.6-42.4-44.3c-8.4-8.7-17.3-16.8-27.8-23c-12.9-7.6-26.4-9.2-40.2-3.1
		c-9.6,4.3-18,10.5-25.3,18c-13.9,14.3-27.6,28.9-41.3,43.5c-11.8,12.6-24.8,23.8-39.8,32.5c-7.7,4.4-15.7,8.1-23.6,12.2
		C151.5,401.8,149.3,403.1,146.8,404.4z"/>
	<path class="st0" d="M107.3,232.7c-0.3,4.2-0.7,8.4-1,12.5c-1,14-1.8,28.1-2.9,42.1c-0.4,5.3-1.3,10.5-1.9,15.7
		c-1,8.3,1.7,15.3,7.6,21c1.7,1.7,2.1,3.1,1.6,5.4c-0.8,4.1-1.1,8.3-1.7,12.9c-1.4-1.7-2.7-3.1-3.9-4.8c-2.4-3.5-4.9-6.9-7.1-10.5
		c-3.9-6.3-4.9-13.3-4.4-20.5c1-15.3,2.2-30.6,3-45.9c0.7-14.2,1.1-28.4,1.4-42.7c0.2-7.1-0.2-14.2-0.3-21.3c0-1.3-0.1-2.6,0-3.8
		c0.3-4.6,0.7-5.1,5.1-6.1c21.7-4.9,43.6-8.5,65.6-11.4c28.5-3.8,57.1-5.6,85.8-6.6c17.5-0.6,35-1.4,52.5-1
		c28.8,0.6,57.5,1.8,86.3,3.4c35.6,2.1,70.7,7.5,105.5,14.9c4.3,0.9,4.7,1.3,4.8,5.7c0.1,10.5-0.2,21,0.1,31.4
		c0.6,20.5,1.4,40.9,2.3,61.4c0.3,6.2,0.9,12.4,1.7,18.6c1.4,10-0.8,19-6.7,27.2c-2.4,3.2-4.8,6.4-7.1,9.6c-0.4,0.5-0.7,1-1.1,1.5
		c-0.2-0.1-0.4-0.2-0.6-0.3c0-0.8-0.1-1.7-0.2-2.5c-0.4-3.6-0.8-7.3-1.4-10.9c-0.3-1.5,0.1-2.5,1-3.6c2.5-3.3,5-6.6,7.1-10.1
		c2.3-3.9,2.2-8.3,1.4-12.6c-3.2-17.3-4.4-34.9-5.3-52.4c-0.3-4.8-1-9.6-1.5-14.5c-0.2,0-0.4,0-0.6,0c-0.6,3.4-1,6.8-1.7,10.2
		c-2.3,11.2-4.2,22.5-7.1,33.5c-3.2,12.6-12.6,19.8-23.8,25c-0.9,0.4-2.2,0.2-3.2-0.2c-19.2-6.2-37.4-14.7-54.1-26
		c-17.1-11.5-33.6-23.9-50.4-35.9c-9-6.4-18.1-12.6-28.4-16.8c-17.3-6.9-34.3-6.2-51,2.1c-12.3,6.1-23.2,14.2-33.9,22.4
		c-18.4,14.2-37.2,28-57.6,39.2c-11.8,6.5-24.4,11.6-37.3,15.6c-0.8,0.3-2,0.2-2.7-0.2c-4.6-2.8-9.4-5.5-13.6-8.8
		c-6.4-4.9-9.4-12.1-11.2-19.7c-2.3-9.8-3.9-19.7-5.8-29.6c-0.8-4.3-1.5-8.6-2.3-12.9C107.9,232.7,107.6,232.7,107.3,232.7z
		 M334.9,185.9c0,0.1,0,0.1,0,0.2c-1.9,0-3.9-0.2-5.7,0c-3.4,0.5-6.9,0.8-8.9,4.3c-2.4,4.4-0.9,10.6,3.5,14.2
		c1.9,1.5,4.1,2.8,6.3,3.9c9.7,5.2,19.8,9.8,29.2,15.4c17.6,10.4,34.8,21.5,52.2,32.2c7.1,4.4,14.2,8.9,21.5,13
		c8.9,4.9,16.7,3.4,22.9-4.2c3-3.7,5.7-7.8,7.6-12.1c3.3-7.7,6-15.6,8.6-23.6c2.7-8.5,4.5-17.2,4.8-26.1c0.2-5-1.6-7.3-6.6-8.4
		c-0.7-0.1-1.4-0.3-2.1-0.3c-14-0.6-27.9-1.2-41.9-2c-16-0.9-31.9-2-47.9-3.1C363.9,188.3,349.4,187.1,334.9,185.9z M138.4,195
		c0-0.1,0-0.1,0-0.2c-1.9,0-3.8-0.1-5.8,0c-4.7,0.3-8.8,2.2-8.4,8.5c0.2,3.2,0.2,6.5,1,9.5c2.3,9.4,4.7,18.7,7.6,28
		c2.6,8.5,6.4,16.6,11.8,23.7c4.7,6.1,12.5,10.6,21.3,6.1c1.9-1,4-1.7,5.8-2.9c15.4-9.7,30.8-19.4,46.2-29.2
		c16.5-10.5,33.3-20.3,50.9-28.7c3.3-1.6,6.4-3.7,9.1-6.1c3.7-3.2,5.1-7.5,3.4-12.2c-1.7-4.8-6.2-5.7-10.7-5.7
		c-4.1,0.1-8.3,0.4-12.4,0.7c-19.4,1.5-38.7,3.1-58.1,4.5C179.6,192.5,159,193.7,138.4,195z"/>
	<path class="st0" d="M84.2,468.5c-2.7-3.2-5.1-5.9-7.3-8.8c-10.2-13-20-26.3-27.8-41c-5.3-10-11-19.9-13.7-31
		c-1-4.1-1.5-8.5-1.7-12.8c-0.5-10.3,5.1-17.6,12.6-23.8c0.3-0.2,0.7-0.4,1.3-0.7c1,1.8,1.9,3.5,2.8,5.3
		c11.3,23.4,24.6,45.5,38.4,67.4c2,3.2,4.2,6.4,6.2,9.7c0.4,0.7,0.6,2.1,0.3,2.8c-5.1,9.9-8.6,20.3-10.4,31.2
		C84.7,467.2,84.6,467.5,84.2,468.5z"/>
	<path class="st0" d="M553.8,348.9c2.2,2,4.3,3.5,6,5.5c4,4.9,7.8,10.3,7.9,16.8c0.1,5.1-0.4,10.5-1.8,15.3
		c-5.1,17.3-14.2,32.7-24.2,47.4c-6.8,10-14.3,19.6-21.6,29.3c-0.8,1.1-1.9,2.1-3.2,3.4c-0.8-3.5-1.1-6.5-2.1-9.3
		c-2.6-7.4-5.4-14.8-8.4-22.1c-0.8-2-0.7-3.3,0.3-5c9.7-15.6,19.5-31.2,28.8-47.1c6.1-10.4,11.4-21.3,17.1-31.9
		C552.8,350.7,553.2,350,553.8,348.9z"/>
	<path class="st0" d="M93.2,234.8c-1.3,20.3-2.5,40.7-3.9,61c-0.3,4.3-0.9,8.6-1.3,12.9c-0.2,1.7-0.8,2.5-2.6,2.2
		c-4.6-0.7-9.2-1.1-13.7-2.1c-1.3-0.3-3.1-1.8-3.5-3.1c-1.4-5.2-2.5-10.4-3.2-15.7c-2.3-18.4-2.6-36.8-0.2-55.2
		c1.3-10.4,3.1-20.8,4.7-31.2c0.2-1.4,0.7-2.8,1.2-4.1c1.5-4.7,1.6-4.9,6.4-5.1c4.3-0.2,8.6,0,12.9-0.1c2,0,2.9,0.6,2.9,2.9
		c-0.1,12.5-0.1,25.1-0.1,37.6C93,234.8,93.1,234.8,93.2,234.8z"/>
	<path class="st0" d="M508.1,227.6c0-9.6,0-20.7,0-31.7c0-1.6,0.5-2.3,2-2.3c5.4,0,10.9,0,16.3,0.1c1.7,0,2.9,0.9,3.3,2.6
		c1.7,7.8,4,15.5,5.2,23.3c3.2,21.1,4.5,42.3,2,63.5c-0.9,7.1-2.8,14.1-4.2,21.1c-0.5,2.4-2,3.7-4.4,3.9c-3.9,0.5-7.8,0.9-11.6,1.6
		c-2.6,0.5-3.2-0.8-3.4-3c-0.7-7.9-1.7-15.7-2.2-23.6C509.8,265.3,509,247.2,508.1,227.6z"/>
	<path class="st0" d="M512.1,319.9c3.6,2.8,7.3,5.7,11.1,8.5c1.4,1.1,0.5,2,0,2.9c-3.3,6.2-6.7,12.4-10,18.6
		c-9.6,17.9-20.7,35-31.8,51.9c-1.3,2-2.7,3.9-4.2,5.8c-0.4,0.5-1.2,1-1.7,0.9c-4.6-1.3-9.2-2.7-14.1-4.3c1-2.6,1.8-5.2,3-7.5
		c6.6-12,13-24.3,20.2-35.9c6.3-10,13.8-19.2,20.5-28.9C507.7,328.1,509.8,323.9,512.1,319.9z"/>
	<path class="st0" d="M89.2,320.6c1.3,2.6,2.3,5.5,4,8c6.3,9,12.8,17.8,19.1,26.7c10.5,14.9,19.5,30.8,26.9,47.5
		c1.1,2.4,0.9,2.7-1.7,3.4c-3.6,1-7.2,2.2-10.8,3.1c-0.8,0.2-2.2-0.1-2.6-0.7c-7-10.6-14.3-21-20.8-31.9
		c-8.7-14.5-16.7-29.3-25.1-43.9c-1.1-1.9-1-3,0.9-4.3C82.6,326.1,85.9,323.3,89.2,320.6z"/>
	<path class="st0" d="M35.9,404c-3.5-2-5.9-4.8-7.7-8.1c-8.1-15-10.5-30.8-5.9-47.3c2.7-9.5,8.8-16.8,16.2-23
		c7-5.8,14.5-11,22.9-14.7c1.5-0.7,2.5-0.8,4,0.3c4.2,3,9.3,3.3,14.2,3.9c1.7,0.2,3.3,0.4,5.5,0.7c-0.8,1.2-1.3,2.2-2,2.9
		c-2.3,2-4.8,4-7.2,5.9c-0.6,0.5-1.3,0.7-1.7,1.3c-4.3,5.7-10.9,8.2-16.5,12c-6.9,4.8-14.2,9-19.8,15.4c-8.7,9.8-10.9,21.1-7.8,33.5
		c1.2,5,3.3,9.8,5,14.8C35.3,402.4,35.6,403.2,35.9,404z"/>
	<path class="st0" d="M565.6,402.5c1.5-4.2,3.2-8.3,4.6-12.5c3-9.7,4.1-19.4-0.5-29c-3.7-7.7-9.5-13.5-16.7-18
		c-6.9-4.3-13.8-8.7-20.6-13.1c-1.2-0.8-2.1-2.2-3.2-3.3c-0.7-0.7-1.4-1.3-2.1-1.8c-2.9-2.2-5.9-4.4-8.7-6.7c-0.8-0.7-1.3-1.7-2.3-3
		c3.4-0.5,6.3-0.8,9.2-1.3c4.1-0.7,8.2-1.3,11.6-4.2c0.5-0.4,2.1,0.1,3,0.5c9.9,4.2,18.3,10.6,26.1,18
		c12.6,11.9,16.6,26.7,14.5,43.4c-1.2,9.6-3.9,18.6-9.6,26.5c-1.3,1.8-3,3.4-4.6,5C566,402.8,565.8,402.6,565.6,402.5z"/>
	<path class="st0" d="M102,383.1c2.3,3.7,4.5,7,6.6,10.4c0.2,0.3-0.2,1.4-0.6,1.7c-7.2,4.4-14.3,8.7-21.6,12.9
		c-0.5,0.3-1.9-0.2-2.2-0.7c-1.8-2.7-3.5-5.6-5-8.4c-0.3-0.6-0.1-2,0.3-2.3C86.8,392.1,94.2,387.7,102,383.1z"/>
	<path class="st0" d="M491.9,393.3c2.3-3.5,4.3-6.7,6.3-9.8c0.6-1,1.3-1.2,2.3-0.6c6.9,4.1,13.9,8.2,20.8,12.4
		c0.5,0.3,0.9,1.7,0.6,2.2c-1.6,3-3.3,5.9-5.1,8.7c-0.3,0.5-1.7,0.9-2.2,0.6c-7.3-4.2-14.4-8.5-21.7-12.8
		C492.7,393.8,492.5,393.6,491.9,393.3z"/>
	<path class="st0" d="M93.5,369c1.9,3.1,3.7,6.2,5.6,9.2c0.6,1,0.5,1.7-0.6,2.3c-6.9,4.1-13.9,8.3-20.7,12.4c-1.3,0.8-2,0.6-2.7-0.7
		c-1.4-2.6-2.9-5.2-4.3-7.7c-0.6-1.1-0.6-1.9,0.5-2.6c7.1-4.2,14.1-8.4,21.2-12.6C92.7,369.1,93,369.1,93.5,369z"/>
	<path class="st0" d="M525,392.7c-8-4.8-15.7-9.4-23.7-14.1c2.1-3.5,3.9-6.7,6-9.8c0.2-0.4,1.3-0.6,1.7-0.3c7,4.1,14,8.3,21,12.5
		c0.4,0.3,0.8,1.4,0.6,1.7C528.8,386,527,389.2,525,392.7z"/>
	<path class="st0" d="M91.2,364.7c-0.6,0.2-1.4,0.4-2,0.8c-6.8,4.1-13.5,8.1-20.2,12.3c-1.2,0.7-1.9,0.3-2.4-0.8
		c-1.1-2.2-2.3-4.4-3.5-6.5c-0.7-1.2-0.2-1.9,0.8-2.5c6.7-4.1,13.5-8.2,20.2-12.3c0.4-0.3,1.4-0.4,1.5-0.2
		C87.2,358.1,88.9,360.9,91.2,364.7z"/>
	<path class="st0" d="M516,354c0.7,0.4,1.1,0.6,1.5,0.8c6.5,3.9,12.9,7.9,19.5,11.7c1.5,0.9,1.9,1.7,0.9,3.2c-1.3,2-2.3,4.2-3.6,6.2
		c-0.3,0.5-1.7,0.9-2.2,0.6c-6.7-4-13.4-8-20.1-12.1c-1.3-0.8-1.5-1.7-0.7-3c1.2-2,2.3-4.2,3.6-6.2C515.1,354.8,515.6,354.4,516,354
		z"/>
	<path class="st0" d="M87.5,412.8c3.7-2.3,7.2-4.5,10.7-6.7c3.9-2.3,7.9-4.5,11.8-6.9c1.4-0.9,2.1-0.5,2.9,0.7
		c0.4,0.7,0.9,1.3,1.3,2c4,6,3.5,4.4-1.7,7.7c-5.7,3.6-11.6,7-17.3,10.7c-2,1.3-2.9,0.8-3.9-1.1C90.1,417.1,88.9,415.1,87.5,412.8z"
		/>
	<path class="st0" d="M489.5,397c7.7,4.6,14.9,9,22.2,13.3c1.6,1,1.8,1.8,0.7,3.4c-1.2,1.6-2.1,3.4-3.1,5.1
		c-0.7,1.2-1.5,1.3-2.5,0.6c-7-4.3-14-8.5-21-12.9c-0.5-0.3-1-1.7-0.8-2.2C486.2,401.9,487.8,399.6,489.5,397z"/>
	<path class="st0" d="M541.2,363.3c-7.4-4.5-14.5-8.7-21.5-12.9c-1.3-0.8-1.4-1.6-0.6-2.7c0.6-0.9,1.1-2,1.6-2.9
		c1.5-2.7,1.5-2.7,4.2-1.1c6,3.6,12,7.3,18.1,10.8c1.7,1,2.1,2.1,1.1,3.7C543.1,359.8,542.2,361.4,541.2,363.3z"/>
	<path class="st0" d="M82.9,350.5c-7.7,4.7-15.2,9.3-23.1,14.1c-1.1-2.4-2.2-4.5-3-6.7c-0.2-0.4,0.4-1.4,0.9-1.7
		c6.6-4.1,13.3-8.2,20-12.2c0.5-0.3,1.7-0.1,1.9,0.2C80.7,346.2,81.7,348.2,82.9,350.5z"/>
	<path class="st0" d="M54.1,353.3c-0.8-1.8-1.6-3.2-2.1-4.8c-0.2-0.5,0.2-1.5,0.6-1.8c6.9-4.6,13.8-9.1,21-13.8
		c1.1,2.1,2.1,3.7,2.9,5.4c0.2,0.4-0.1,1.5-0.5,1.8C68.8,344.5,61.6,348.8,54.1,353.3z"/>
	<path class="st0" d="M549.7,346.7c-0.9,1.7-1.5,3.3-2.4,4.7c-0.2,0.3-1.3,0.2-1.8-0.1c-6.6-3.9-13.1-7.9-19.7-11.8
		c-1.3-0.8-1.3-1.5-0.8-2.7c2.1-4.8,2.1-4.9,6.6-2.2c5.6,3.4,11.1,7,16.6,10.5C548.7,345.5,549.2,346.1,549.7,346.7z"/>
	<path class="st0" d="M502.6,428.4c-3.3-3.4-6.1-6.7-9.3-9.5c-2.9-2.5-6.2-4.4-9.4-6.5c-0.7-0.4-1.5-0.7-2.1-1.2
		c-0.3-0.3-0.4-0.9-0.5-1.4c0.5,0,1.1-0.3,1.5-0.1c1.8,0.9,3.5,1.9,5.2,3c5.1,3.1,10.2,6.3,15.2,9.5c2.7,1.7,2.7,1.7,0.8,4.4
		C503.6,427.2,503.1,427.8,502.6,428.4z"/>
	<path class="st0" d="M98.5,429.9c-0.9-1.3-1.5-2.3-2.2-3.2c-0.8-1.1-0.5-1.8,0.6-2.5c7.1-4.4,14.3-8.8,21.4-13.2
		c0.4-0.2,1.2,0.1,1.7,0.1c-0.4,0.5-0.6,1.2-1.1,1.5c-3.9,2.6-8,5-11.7,7.9c-2.7,2.2-4.8,5.1-7.2,7.7
		C99.7,428.7,99.3,429.1,98.5,429.9z"/>
	<path d="M371.7,505.8c-0.4-0.7-0.5-1.1-0.8-1.3c-6.3-5-9.1-12.3-12.3-19.2c-6.1-13.3-11.8-26.7-18-40c-3.2-7-7-13.7-12.7-19
		c-6.4-6-14.2-8.8-22.8-9.3c-8.4-0.5-16.7,0.4-24.1,4.7c-6.3,3.7-11,9.1-14.5,15.3c-3.6,6.3-6.8,12.9-9.8,19.4
		c-6.1,13.2-11.9,26.5-18.1,39.7c-1.5,3.2-4.2,5.9-6.4,8.9c-0.4,0.6-0.9,1.1-1.2,2.2c2-0.2,4-0.3,6-0.6c2-0.3,3.9-0.6,5.9-0.9
		c2.1-0.3,3.6,0.5,4.6,2.3c4.7,9.5,7.5,19.5,8.9,30c0.9,6.8-2.5,11.8-7.1,16.3c-5.5,5.3-12.1,8.5-19.2,11
		c-12.1,4.4-24.6,5.9-37.3,5.1c-19.7-1.2-37.1-8.1-50.8-23.1c-14.1-15.5-14-44.3,8.3-57.9c11.1-6.8,23.4-7.9,36.1-3.9
		c9.1,2.9,16.4,8.3,23.1,14.9c3.4,3.3,7.6,4.9,12.4,4.7c5.7-0.2,9.7-3.5,12.1-8.2c4.9-9.7,9.4-19.6,14-29.4
		c4.6-9.9,8.9-20,13.8-29.8c3.9-7.6,9-14.5,16.8-18.5c16.1-8.2,32.2-8.7,47.9,1.2c6.1,3.8,10.3,9.7,13.5,15.9
		c4.6,8.9,8.7,18.1,12.9,27.3c3.9,8.6,7.6,17.3,11.6,25.8c1.5,3.1,3.5,5.9,5.4,8.7c5.5,8.2,16.2,7.1,22.7,1.2
		c3.9-3.6,7.8-7.4,12.4-10.2c15.9-9.7,33.8-9.9,48.7,0.2c13.1,8.9,18.5,26,14.1,41.3c-3.2,11.3-10.5,19.2-19.8,25.6
		c-14.7,10.1-31.2,13.3-48.8,12.5c-12.5-0.6-24.5-3.2-35.9-8.6c-5.6-2.7-10.3-6.6-14.1-11.6c-3.7-4.9-3.5-10.3-2.4-15.8
		c1.7-8.6,4-17.1,7.8-25.1c0.9-2,2.4-3.2,4.7-2.8c3.1,0.4,6.2,0.9,9.2,1.3C369.5,505.9,370.4,505.8,371.7,505.8z"/>
	<path d="M334.9,185.9c14.5,1.1,29,2.3,43.5,3.3c15.9,1.1,31.9,2.2,47.9,3.1c14,0.8,27.9,1.3,41.9,2c0.7,0,1.4,0.1,2.1,0.3
		c4.9,1.1,6.7,3.4,6.6,8.4c-0.3,8.9-2.1,17.6-4.8,26.1c-2.6,8-5.3,15.9-8.6,23.6c-1.9,4.3-4.6,8.4-7.6,12.1
		c-6.1,7.7-14,9.1-22.9,4.2c-7.3-4-14.4-8.6-21.5-13c-17.4-10.7-34.6-21.7-52.2-32.2c-9.5-5.6-19.5-10.3-29.2-15.4
		c-2.2-1.2-4.3-2.4-6.3-3.9c-4.5-3.5-6-9.8-3.5-14.2c1.9-3.5,5.5-3.8,8.9-4.3c1.9-0.3,3.8,0,5.7,0
		C334.9,186.1,334.9,186,334.9,185.9z M443.1,266.6c2.7,0.4,5.6-0.5,7.6-2.8c2.4-2.7,4.7-5.7,6.5-8.8c5.9-10.1,9.9-20.9,12.5-32.3
		c1.4-6.3,2.2-12.7,3.2-19.1c0.3-1.8-0.4-3.6-2.3-4.3c-1.4-0.6-2.3-0.5-2.6,1.5c-2.8,15.9-6.7,31.6-12.9,46.6
		c-1.9,4.5-4.4,8.9-6.9,13.1C446.8,262.7,444.8,264.6,443.1,266.6z"/>
	<path d="M138.4,195c20.6-1.3,41.2-2.5,61.8-3.9c19.4-1.4,38.7-3,58.1-4.5c4.1-0.3,8.3-0.7,12.4-0.7c4.5-0.1,8.9,0.8,10.7,5.7
		c1.7,4.6,0.2,9-3.4,12.2c-2.7,2.4-5.8,4.6-9.1,6.1c-17.6,8.4-34.4,18.2-50.9,28.7c-15.4,9.8-30.8,19.5-46.2,29.2
		c-1.8,1.1-3.9,1.9-5.8,2.9c-8.8,4.5-16.6,0-21.3-6.1c-5.5-7.1-9.2-15.2-11.8-23.7c-2.8-9.2-5.2-18.6-7.6-28c-0.8-3.1-0.8-6.3-1-9.5
		c-0.4-6.3,3.7-8.2,8.4-8.5c1.9-0.1,3.8,0,5.8,0C138.4,194.9,138.4,194.9,138.4,195z M157.6,266.9c-0.7-1-1.1-1.5-1.4-2
		c-2.2-3.3-4.9-6.3-6.6-9.9c-8.1-17-13.4-34.8-16.4-53.4c-0.1-0.8-0.6-2-1-2c-0.8-0.1-2,0.3-2.6,0.9c-0.7,0.7-1.3,1.9-1.3,2.9
		c-0.1,2.2,0,4.5,0.3,6.7c1.5,9.8,4.1,19.3,7.7,28.6c3.2,8.3,6.7,16.4,12.2,23.5C150.5,264.9,153.4,266.5,157.6,266.9z"/>
	<path class="st0" d="M443.1,266.6c1.7-2,3.7-3.9,5.1-6.2c2.5-4.2,5-8.5,6.9-13.1c6.2-15,10.1-30.6,12.9-46.6c0.3-2,1.2-2,2.6-1.5
		c1.9,0.8,2.6,2.5,2.3,4.3c-0.9,6.4-1.8,12.8-3.2,19.1c-2.6,11.3-6.6,22.2-12.5,32.3c-1.8,3.1-4.1,6.1-6.5,8.8
		C448.7,266.1,445.8,267,443.1,266.6z"/>
	<path class="st0" d="M157.6,266.9c-4.2-0.4-7-2-9.2-4.7c-5.5-7.1-9.1-15.2-12.2-23.5c-3.5-9.3-6.2-18.8-7.7-28.6
		c-0.3-2.2-0.4-4.5-0.3-6.7c0-1,0.6-2.2,1.3-2.9c0.6-0.6,1.7-1,2.6-0.9c0.4,0,0.9,1.3,1,2c3,18.5,8.3,36.4,16.4,53.4
		c1.7,3.5,4.4,6.6,6.6,9.9C156.5,265.4,156.8,265.9,157.6,266.9z"/>
</g>
</svg>
